<svg width="70" height="70" viewBox="0 0 70 70" fill="none" xmlns="http://www.w3.org/2000/svg">
<rect width="70" height="70" rx="16.9355" fill="#17171B"/>
<path d="M25.8194 17.5H28.0477V19.7283H30.2761V24.185H39.1894V19.7283H41.4177V17.5H43.646V19.7283H45.8744V24.185H48.1027V30.87H50.331V33.0983H52.5594V35.3266H54.7877V42.0116H52.5594V44.24H50.331V46.4683H48.1027V47.5825L44.5008 47.6191V51.5H25.0957V47.6191H21.3627V46.4683H19.1344V44.24H16.9061V42.0116H14.6777V35.3266H16.9061V33.0983H19.1344V30.87H21.3627V24.185H23.5911V19.7283H25.8194V17.5Z" fill="#32CD32"/>
<path d="M28.0938 33.3948H31.8782V35.287H28.0938V33.3948Z" fill="white"/>
<path d="M37.555 33.3948H41.3394V35.287H37.555V33.3948Z" fill="white"/>
<path d="M35.6627 37.1793H33.7705V39.0715H31.8782V40.9637H29.986V42.856H31.8782V40.9637H33.7705V39.0715H35.6627V40.9637H37.555V42.856H39.4472V40.9637H37.555V39.0715H35.6627V37.1793Z" fill="white"/>
</svg>
